<svg width="17" height="17" viewBox="0 0 17 17" fill="none" xmlns="http://www.w3.org/2000/svg">
<path d="M10.7332 5.03355C10.6667 5.10542 10.6235 5.15178 10.591 5.18655C10.6513 5.12164 10.7332 5.03355 10.7332 5.03355Z" fill="#8797C0"/>
<path d="M9.88016 5.57986C10.1012 5.85186 10.2109 6.17255 10.2109 6.54191C10.2109 6.80619 10.1351 7.06041 9.98447 7.30614C9.90177 7.44522 9.79286 7.57969 9.65683 7.70794L9.20402 8.15536C8.76975 8.58191 8.48925 8.95975 8.36097 9.2905C8.23269 9.62044 8.16855 10.0555 8.16855 10.5949H9.17619C9.17619 10.1196 9.23028 9.7603 9.33769 9.51689C9.44508 9.27347 9.68 8.97678 10.0424 8.62516C10.5408 8.14219 10.8716 7.77594 11.0354 7.52711C11.1992 7.27828 11.2819 6.95375 11.2819 6.55347C11.2819 5.89358 11.0586 5.35111 10.6111 4.92611C10.1637 4.50111 9.56875 4.28939 8.82536 4.28939C8.02172 4.28939 7.38964 4.53741 6.92908 5.03353C6.46853 5.52964 6.23825 6.18489 6.23825 7.00011H7.24589C7.26442 6.50941 7.3425 6.13389 7.47772 5.87347C7.7188 5.40597 8.15464 5.17183 8.78516 5.17183C9.29441 5.17186 9.65991 5.30786 9.88016 5.57986Z" fill="#8797C0"/>
<path d="M17 8.5C17 3.80567 13.1943 0 8.5 0C3.80567 0 0 3.80567 0 8.5C0 13.1943 3.80567 17 8.5 17C13.1943 17 17 13.1943 17 8.5ZM0.772722 8.5C0.772722 4.23222 4.23222 0.772722 8.5 0.772722C12.7678 0.772722 16.2273 4.23222 16.2273 8.5C16.2273 12.7678 12.7678 16.2273 8.5 16.2273C4.23222 16.2273 0.772722 12.7678 0.772722 8.5Z" fill="#8797C0"/>
<path d="M9.37472 11.5337H8.24808V12.7106H9.37472V11.5337Z" fill="#8797C0"/>
</svg>
